<?xml version="1.0" encoding="UTF-8" standalone="no"?>
<!-- Created with Inkscape (http://www.inkscape.org/) -->

<svg
   xmlns:dc="http://purl.org/dc/elements/1.1/"
   xmlns:cc="http://creativecommons.org/ns#"
   xmlns:rdf="http://www.w3.org/1999/02/22-rdf-syntax-ns#"
   xmlns:svg="http://www.w3.org/2000/svg"
   xmlns="http://www.w3.org/2000/svg"
   xmlns:sodipodi="http://sodipodi.sourceforge.net/DTD/sodipodi-0.dtd"
   xmlns:inkscape="http://www.inkscape.org/namespaces/inkscape"
   id="svg3048"
   version="1.1"
   inkscape:version="0.48.4 r9939"
   width="460"
   height="345"
   sodipodi:docname="KW-EPS-01-0002.png">
  <title
     id="title3060">Kuwait_Outline_Bibin</title>
  <metadata
     id="metadata3054">
    <rdf:RDF>
      <cc:Work
         rdf:about="">
        <dc:format>image/svg+xml</dc:format>
        <dc:type
           rdf:resource="http://purl.org/dc/dcmitype/StillImage" />
        <dc:title>Kuwait_Outline_Bibin</dc:title>
      </cc:Work>
    </rdf:RDF>
  </metadata>
  <defs
     id="defs3052" />
  <sodipodi:namedview
     pagecolor="#ffffff"
     bordercolor="#666666"
     borderopacity="1"
     objecttolerance="10"
     gridtolerance="10"
     guidetolerance="10"
     inkscape:pageopacity="0"
     inkscape:pageshadow="2"
     inkscape:window-width="1920"
     inkscape:window-height="1017"
     id="namedview3050"
     showgrid="false"
     inkscape:zoom="1.2434783"
     inkscape:cx="99.502299"
     inkscape:cy="92.348038"
     inkscape:window-x="-8"
     inkscape:window-y="-8"
     inkscape:window-maximized="1"
     inkscape:current-layer="svg3048" />
  <path
     style="fill:#000000"
     d="M 246.67462,253.44398 C 241.2018,247.23657 239,242.62063 239,237.35461 239,231.15286 229.54424,208 227.0114,208 c -0.44968,0 -10.87371,-1.33161 -23.1645,-2.95913 -12.2908,-1.62751 -29.7719,-3.87618 -38.8469,-4.99702 -21.71408,-2.68189 -23.00256,-2.92513 -22.98529,-4.33916 0.008,-0.66258 3.61336,-5.25469 8.01172,-10.20469 4.39835,-4.95 9.19132,-11.025 10.65104,-13.5 1.45972,-2.475 4.52738,-6.75 6.81702,-9.5 2.28964,-2.75 4.77551,-6.575 5.52415,-8.5 0.74865,-1.925 3.52572,-7.30612 6.17127,-11.95804 C 181.83546,137.39004 184,132.566 184,131.32187 c 0,-1.24413 1.30074,-4.86301 2.89054,-8.04196 1.58979,-3.17895 4.40229,-9.82589 6.25,-14.77098 4.30321,-11.516871 7.66046,-14.969772 19.2874,-19.836902 L 221.19993,85 l 17.25207,0 17.25207,0 11.19412,5.493878 c 10.31523,5.062535 11.34579,5.82804 13.126,9.750002 1.06254,2.34087 1.94616,6.05612 1.96362,8.25612 0.0323,4.07809 3.8592,13.66938 5.97594,14.9776 1.94739,1.20355 2.6627,-0.54636 0.78468,-1.9196 -2.59477,-1.89734 -2.12692,-4.22135 1.25157,-6.21707 3.41104,-2.01495 3.64527,-2.83852 1.43571,-5.04807 -2.27557,-2.27558 -0.14979,-4.2199 2.68094,-2.45208 1.76746,1.10379 2.26094,1.02776 3.40793,-0.52504 0.98932,-1.33936 1.03085,-1.88829 0.15831,-2.09228 -0.65059,-0.1521 -1.98054,-1.66876 -2.95545,-3.37035 C 292.68566,98.289412 293.74985,96 297.44813,96 c 2.71706,0 4.50186,1.956148 12.77371,14 7.33429,10.67875 8.22717,12.79305 7.35836,17.42421 -0.72039,3.83999 -6.55639,10.995 -10.72738,13.1519 -2.56197,1.32485 -3.31525,1.33968 -5.77283,0.11368 l -2.82638,-1.40998 1.54481,2.69168 c 3.24184,5.64857 -1.24154,7.88451 -7.79682,3.88841 -4.5783,-2.79093 -10.35599,-2.7811 -13.83047,0.0235 -1.46912,1.18589 -4.75084,3.50029 -7.29272,5.14313 -2.54187,1.64284 -5.82265,4.80191 -7.29062,7.02016 -1.46797,2.21825 -3.77576,4.53744 -5.12842,5.15375 -2.44245,1.11286 -3.34276,2.79954 -1.49432,2.79954 0.53078,0 3.05965,-0.71113 5.61971,-1.5803 5.46706,-1.85611 7.89798,-0.71559 5.08943,2.38782 -0.9232,1.02013 -1.37757,2.15576 -1.00971,2.52363 1.33957,1.33957 4.34906,0.62003 5.56759,-1.33115 0.68696,-1.1 1.98568,-2 2.88603,-2 0.90036,0 2.19721,-0.675 2.8819,-1.5 1.77584,-2.13976 3.54544,-1.86365 6.40909,1 1.52529,1.52529 3.63864,2.5 5.42046,2.5 2.91372,0 2.92049,0.0144 2.9395,6.25 0.0117,3.82818 0.78437,8.18746 1.99413,11.25 1.08629,2.75 2.29727,7.7 2.69105,11 0.39378,3.3 1.5065,7.8 2.4727,10 2.11201,4.80893 6.74887,10.5 8.55497,10.5 1.65537,0 2.64506,2.50558 1.82934,4.63132 -1.09144,2.84424 3.73623,10.22924 7.49872,11.47098 2.70641,0.89319 3.25913,1.52141 2.86153,3.25236 -1.62591,7.07826 -1.76203,8.64534 -0.75095,8.64534 0.59371,0 1.07946,1.10973 1.07946,2.46607 0,1.35634 0.75565,4.05069 1.67922,5.98745 0.92358,1.93675 1.48608,3.69151 1.25,3.89947 -0.23607,0.20795 -16.64485,0.62721 -36.46396,0.93168 l -36.03474,0.55358 -4.7559,-5.39427 z m 48.68237,2.56201 c 24.24288,-0.006 25.81027,-0.11523 25.10857,-1.75599 -0.41163,-0.9625 -0.96018,-2.98291 -1.21899,-4.4898 -0.25882,-1.50688 -0.81918,-2.52434 -1.24526,-2.26101 -0.42609,0.26334 -1.28046,-0.13062 -1.89861,-0.87545 -0.84296,-1.01569 -0.74783,-2.07537 0.38053,-4.23899 2.11199,-4.04969 1.88485,-6.25992 -0.76751,-7.46841 C 312.69704,233.54093 308,226.00612 308,222.53906 c 0,-1.70772 -0.90404,-3.46234 -2.38355,-4.62612 -4.96841,-3.90815 -8.6033,-11.24928 -10.17368,-20.54709 -0.82359,-4.87622 -1.94027,-9.76585 -2.48151,-10.86585 -1.88652,-3.83411 -3.59593,-12.25529 -2.88034,-14.1897 0.61477,-1.6619 0.0657,-2.12374 -3.73274,-3.13966 -3.0934,-0.82736 -4.22613,-1.56977 -3.7089,-2.43089 0.42273,-0.70381 -0.0698,-0.5913 -1.13928,0.26025 -1.09798,0.87422 -1.57062,0.97852 -1.13294,0.25 1.04484,-1.73914 -0.33632,-1.44487 -3.86706,0.82392 -6.67171,4.28712 -8.83554,4.91469 -10.81154,3.13568 -0.99634,-0.89703 -1.61327,-2.38913 -1.37094,-3.31579 0.37793,-1.44522 -0.003,-1.55747 -2.68186,-0.78932 -5.58544,1.60188 -7.63566,1.17796 -7.63566,-1.57881 0,-1.71955 0.88568,-2.93232 2.90346,-3.97576 1.5969,-0.82579 3.86327,-3.05445 5.03639,-4.95259 1.17311,-1.89814 4.47906,-5.06348 7.34654,-7.03408 2.86749,-1.97061 6.48411,-4.591 8.03694,-5.82309 3.84181,-3.04827 9.89967,-2.96078 15.91403,0.22983 2.56079,1.3585 4.9593,2.16669 5.33001,1.79597 0.37072,-0.37071 -1.40529,-4.16799 -3.94667,-8.43839 -2.54139,-4.27041 -4.6207,-8.32526 -4.6207,-9.01079 0,-0.68553 -0.88588,-1.72052 -1.96862,-2.29999 -3.30329,-1.76786 -7.10578,-9.47701 -8.08498,-16.39145 -1.49378,-10.547969 -2.08401,-11.259638 -14.318,-17.263867 L 254.70407,87 238.54508,87 c -16.02153,0 -16.22987,0.0286 -24.4921,3.361675 -12.20509,4.923677 -14.01171,6.705858 -18.53506,18.284305 -2.11732,5.41971 -5.12503,12.42869 -6.6838,15.5755 -1.55876,3.14682 -2.83412,6.75396 -2.83412,8.01587 0,1.26192 -1.85664,5.43725 -4.12586,9.27852 -2.26923,3.84127 -5.21118,9.39779 -6.53767,12.34782 -1.32649,2.95003 -4.44662,7.86164 -6.93362,10.91469 -2.48701,3.05306 -5.23407,6.9394 -6.10459,8.63631 -0.87052,1.69692 -5.13282,7.09874 -9.47179,12.00404 -4.33896,4.9053 -7.53744,9.22998 -7.10774,9.61041 0.4297,0.38043 5.50627,1.23476 11.28127,1.89851 19.83705,2.27998 70.89703,9.09561 72.12819,10.07332 1.23116,0.97771 1.3506,1.60377 3.47253,5.40031 4.26312,7.62755 7.51656,16.81331 8.45085,23.86006 1.0678,8.05379 2.05466,10.09437 7.87933,16.29233 l 4.4309,4.71486 8.0691,-0.62827 c 4.43801,-0.34555 19.70474,-0.63097 33.92609,-0.63427 z m 14.63289,-120.61581 c 5.17887,-4.6788 6.7923,-9.67069 4.66659,-14.43826 -2.3897,-5.35965 -15.00845,-22.396024 -16.85152,-22.750966 -1.22522,-0.235956 -1.51004,0.210765 -1.10993,1.740819 C 296.99106,101.0738 297.76977,102 298.4255,102 c 0.65573,0 1.95904,0.5625 2.89624,1.25 1.58505,1.16274 1.54604,1.47567 -0.55887,4.48272 -1.24458,1.778 -3.05037,3.2405 -4.01287,3.25 -1.06044,0.0105 -1.75,0.78308 -1.75,1.96074 0,1.08 -1.27691,2.69776 -2.87404,3.64121 l -2.87404,1.69773 2.41412,3.55741 c 1.32776,1.95657 3.83217,6.61803 5.56534,10.3588 2.79711,6.0371 3.46653,6.80139 5.95704,6.80139 1.81832,0 4.21207,-1.27046 6.80146,-3.60982 z m -16.37158,-6.05177 c -0.84603,-1.56113 -1.55624,-2.52208 -1.57826,-2.13546 -0.0677,1.18867 2.25876,5.83158 2.70066,5.38968 0.2287,-0.2287 -0.27638,-1.6931 -1.1224,-3.25422 z M 315.5,162.472 c -2.2,-1.35396 -4.81739,-2.46406 -5.81642,-2.46688 -1.39069,-0.004 -1.74226,-0.64967 -1.5,-2.75512 0.2887,-2.50912 0.6624,-2.73846 4.26619,-2.61822 3.08844,0.10304 4.57304,0.82933 6.80783,3.33049 2.76028,3.0893 3.31189,6.05142 1.2424,6.67174 -0.55,0.16486 -2.8,-0.80804 -5,-2.16201 z m 1.94444,-3.43673 c -2.10103,-2.06292 -7.46744,-3.79687 -7.4082,-2.39368 0.0386,0.91409 8.15767,5.10907 8.9082,4.60271 0.24445,-0.16492 -0.43055,-1.15898 -1.5,-2.20903 z M 283.39263,99.580788 c -1.33653,-3.482936 6.39184,-9.068097 9.71008,-7.017312 1.58734,0.981032 0.98216,1.943293 -3.28449,5.222524 -4.66479,3.58522 -5.63459,3.8561 -6.42559,1.794788 z M 288,96.5 c 0.68469,-0.825 1.01989,-1.5 0.74489,-1.5 -0.275,0 -1.0602,0.675 -1.74489,1.5 -0.68469,0.825 -1.01989,1.5 -0.74489,1.5 0.275,0 1.0602,-0.675 1.74489,-1.5 z"
     id="path3058"
     inkscape:connector-curvature="0"
     sodipodi:nodetypes="csssscssssssssscccsscssssssssssssscssssssssssssssssssssssssssssccccsssssssssssscssssscsssssscssssscsssssssssssscssscscssscssscsscssssssssscssssssssssssssssss" />
</svg>
